<svg width="125" height="145" viewBox="0 0 125 145" fill="none" xmlns="http://www.w3.org/2000/svg">
<path d="M62.4718 137.098L19.0728 94.3805C19.2243 97.9589 20.1332 101.537 21.8752 104.967L62.4718 145V137.098Z" fill="#C8C4C3"/>
<path d="M25.3599 76.414L62.5482 112.944V105.339L28.9954 72.4628L27.2534 74.1775C26.496 74.923 25.9658 75.6685 25.3599 76.414Z" fill="#C8C4C3"/>
<path d="M62.472 128.897V121.591L21.9512 81.7069C21.0423 83.4216 20.2091 84.9871 19.7547 86.7763L62.472 128.897Z" fill="#C8C4C3"/>
<path d="M99.6605 68.5862L62.5479 32.1312V39.7353L96.025 72.6119L97.767 70.8972C98.4487 70.1517 99.0546 69.4062 99.6605 68.5862Z" fill="#C8C4C3"/>
<path d="M62.4724 16.1776V23.4835L103.069 63.3679C103.978 61.6532 104.584 59.864 105.114 58.0748L62.4724 16.1776Z" fill="#C8C4C3"/>
<path d="M62.4722 23.4835V16.1776L15.8164 62.026C6.12171 72.463 4.83413 84.3165 12.1809 94.9026C7.40928 85.1365 9.68148 76.1905 18.9975 66.2008L62.4722 23.4835Z" fill="#09715D"/>
<path d="M62.472 7.90231V0L7.18183 54.4962C-0.467908 63.0694 -3.34603 77.2339 5.28833 88.491C-0.013468 78.4267 1.95577 68.7352 11.196 58.4473L62.472 7.90231Z" fill="#09715D"/>
<path d="M62.4722 39.7353V32.1312L23.6176 70.2263C13.0898 81.4088 12.5596 93.7096 21.7998 104.818L22.0271 105.041C16.7253 94.9024 18.3916 83.5707 27.2531 74.1774L62.4722 39.7353Z" fill="#09715D"/>
<path d="M62.4724 121.591V128.897L109.128 82.9742C118.899 72.6117 120.11 60.6837 112.764 50.0976C117.535 59.8637 115.263 68.8097 105.947 78.7994L62.4724 121.591Z" fill="#09715D"/>
<path d="M62.4724 137.098V144.926L117.763 90.5039C125.488 81.9307 128.366 67.7661 119.656 56.5836C124.958 66.5733 122.989 76.2648 113.748 86.6273L62.4724 137.098Z" fill="#09715D"/>
<path d="M62.4724 105.414V113.018L101.327 74.7737C111.855 63.5912 112.385 51.2904 103.069 40.1079L102.842 39.8842C108.144 50.023 106.477 61.4292 97.6157 70.8225L62.4724 105.414Z" fill="#09715D"/>
<path d="M62.4724 7.90231L105.796 50.6195C105.644 47.0411 104.735 43.4627 102.993 40.0334L62.4724 0V7.90231Z" fill="#C8C4C3"/>
</svg>
